<svg width="94" height="32" viewBox="0 0 94 32" fill="none" xmlns="http://www.w3.org/2000/svg">
<path d="M8.27663 2.94672H11.8965L7.54451 9.86672L11.9372 18.3067H8.27663L4.45336 10.4267H4.41268V18.3067H1.15884L1.11816 2.94672H4.37201V9.50672H4.41268L8.27663 2.94672Z" fill="#004894"/>
<path d="M14.2965 18.3067L14.2559 2.94672H17.5097L17.5504 18.3067H14.2965Z" fill="#004894"/>
<path d="M21.1696 18.2667L21.1289 2.90668H29.6296V5.26668H24.3421V9.06668H29.1822V11.4267H24.3421V15.9067H29.7516V18.2667H21.1696Z" fill="#004894"/>
<path d="M37.0734 18.5067C33.0061 18.5067 32.274 16.1867 32.4366 13.5067H35.6905C35.6905 14.9867 35.7312 16.1867 37.5615 16.1867C38.7003 16.1867 39.229 15.4667 39.229 14.4667C39.229 11.6667 32.64 11.5467 32.64 6.98669C32.64 4.58669 33.8195 2.66669 37.7648 2.66669C40.9373 2.66669 42.5642 4.06669 42.3202 7.26669H39.1477C39.1477 6.10669 38.9443 4.94669 37.6428 4.94669C36.5853 4.94669 35.9345 5.50669 35.9752 6.58669C35.9752 9.50669 42.5642 9.22669 42.5642 14.0667C42.5236 18.0267 39.5951 18.4667 37.0734 18.5067Z" fill="#004894"/>
<path d="M47.2009 10.7867V18.2267H45.818L45.7773 2.8667H50.0887C53.0985 2.8667 53.8306 3.8267 53.8306 6.5067C53.8306 8.4267 53.5459 9.6667 51.4309 10.1467V10.1867C53.6272 10.6267 53.7086 10.8667 53.7899 16.3867C53.7899 16.9467 53.8713 17.5867 53.9526 18.1467H52.6511C52.4884 17.7067 52.4477 15.1867 52.4071 14.3067C52.4071 13.6267 52.8545 10.7067 49.804 10.7067C49.8446 10.7867 47.2009 10.7867 47.2009 10.7867ZM47.2009 9.6267H49.4379C51.5529 9.6267 52.4477 9.1067 52.4477 6.5067C52.4477 4.3867 51.6343 4.0267 49.9667 4.0267H47.1196L47.2009 9.6267Z" fill="#CEA100"/>
<path d="M62.8599 2.82668L67.7407 18.1467H66.2764L65.0156 14.1067H58.9146L57.6944 18.1467H56.3115L61.1923 2.78668L62.8599 2.82668ZM64.6495 12.9867L61.9651 4.30668H61.9244L59.3213 12.9867H64.6495Z" fill="#CEA100"/>
<path d="M75.7528 2.74667L80.6743 18.0667H79.21L77.9492 14.0267H71.8482L70.628 18.0667H69.2451L74.1259 2.70667L75.7528 2.74667ZM77.5424 12.9467L74.858 4.26666H74.8173L72.1736 12.9467H77.5424Z" fill="#CEA100"/>
<path d="M83.3994 2.7467H87.5481C91.9001 2.7467 92.4695 5.2267 92.4695 10.4667C92.4695 15.5467 91.7374 18.1067 87.0193 18.1067H83.4401L83.3994 2.7467ZM84.823 16.9867H86.5312C90.6799 16.9867 91.1273 15.8667 91.0866 9.5867C91.0866 5.1867 90.4359 3.9067 86.6126 3.9067H84.823V16.9867Z" fill="#CEA100"/>
<path d="M0.924152 29.9167L7.91992 29.8969L7.8998 23.0169L0.904026 23.0367L0.924152 29.9167Z" fill="#004894"/>
<path d="M19.4206 29.8267H12.4248V22.9867H19.4206V29.8267ZM13.0756 29.2267H18.7698V23.5867H13.0756V29.2267Z" fill="#004894"/>
<path d="M30.9307 29.7867H23.9756V22.9067H30.9714V29.7867H30.9307ZM24.5857 29.1467H30.2799V23.5467H24.5857V29.1467Z" fill="#004894"/>
<path d="M42.4414 29.7867H35.4863V22.9067H42.4821V29.7867H42.4414ZM36.0964 29.1467H41.7907V23.5467H36.0964V29.1467Z" fill="#004894"/>
<path d="M53.9928 29.7467H46.9971V22.8667H53.9928V29.7467ZM47.6478 29.1067H53.3421V23.5067H47.6478V29.1067Z" fill="#004894"/>
<path d="M65.5436 29.7067H58.5479V22.8267H65.5436V29.7067ZM59.158 29.0667H64.8522V23.4667H59.158V29.0667Z" fill="#004894"/>
<path d="M77.0544 29.7067H70.0586V22.8267H77.0544V29.7067ZM70.7094 29.0667H76.4036V23.4667H70.7094V29.0667Z" fill="#004894"/>
</svg>
