<svg width="208" height="36" viewBox="0 0 208 36" fill="none" xmlns="http://www.w3.org/2000/svg">
<path fill-rule="evenodd" clip-rule="evenodd" d="M15.2159 0L30.2486 8.47436L25.5768 11.004L15.14 5.01734L4.40396 10.6477V23.5518L15.1779 30.2294L25.9519 23.5518L30.3558 20.967V26.008L15.1779 35.4151L0 26.008V7.9798L15.2159 0Z" fill="#2C4BFF"/>
<path d="M30.356 16.1709V12.1423L27.092 13.9207L15.3266 20.7336L7.08325 16.1708V20.7336L15.3266 25.2965L25.0523 19.3799L30.356 16.1709Z" fill="#2C4BFF"/>
<path d="M56.4163 21.852C56.5267 21.852 56.6372 21.8756 56.7477 21.9229C56.8581 21.9607 56.964 22.0317 57.0653 22.1357L58.9156 24.1361C58.1055 25.2237 57.0883 26.0466 55.8639 26.6046C54.6487 27.1532 53.208 27.4275 51.5418 27.4275C50.0136 27.4275 48.6419 27.1626 47.4268 26.633C46.2208 26.0939 45.1943 25.3561 44.3474 24.4198C43.5097 23.474 42.8653 22.358 42.4142 21.0717C41.9631 19.7759 41.7375 18.3714 41.7375 16.8581C41.7375 15.3165 41.9815 13.9025 42.4694 12.6162C42.9573 11.3205 43.6432 10.2044 44.5269 9.26807C45.4107 8.33173 46.4693 7.60346 47.7029 7.08327C48.9365 6.56308 50.2944 6.30298 51.7765 6.30298C52.5314 6.30298 53.2402 6.37392 53.9031 6.51579C54.5751 6.6482 55.2011 6.83736 55.781 7.08327C56.361 7.31972 56.895 7.60819 57.3829 7.94868C57.8708 8.28917 58.3034 8.65803 58.6809 9.05526L57.1067 11.2259C57.0054 11.3583 56.8857 11.4812 56.7477 11.5947C56.6096 11.6988 56.4163 11.7508 56.1677 11.7508C56.002 11.7508 55.8455 11.713 55.6982 11.6373C55.5509 11.5616 55.3944 11.4718 55.2287 11.3677C55.063 11.2543 54.8789 11.136 54.6763 11.0131C54.483 10.8807 54.2483 10.7624 53.9721 10.6584C53.7051 10.5449 53.3875 10.4503 53.0193 10.3747C52.6603 10.299 52.2368 10.2612 51.7489 10.2612C50.9756 10.2612 50.2668 10.4078 49.6223 10.701C48.9871 10.9942 48.4348 11.4245 47.9653 11.992C47.505 12.55 47.146 13.2404 46.8882 14.0633C46.6397 14.8767 46.5154 15.8083 46.5154 16.8581C46.5154 17.9174 46.6535 18.8585 46.9296 19.6813C47.215 20.5042 47.5971 21.1994 48.0758 21.7668C48.5637 22.3249 49.1298 22.7505 49.7742 23.0437C50.4186 23.3369 51.1091 23.4835 51.8456 23.4835C52.269 23.4835 52.6557 23.4645 53.0055 23.4267C53.3553 23.3794 53.6821 23.3085 53.9859 23.2139C54.2897 23.1099 54.5751 22.9775 54.8421 22.8167C55.109 22.6464 55.3806 22.4336 55.6568 22.1783C55.7672 22.0837 55.8869 22.008 56.0158 21.9513C56.1447 21.8851 56.2782 21.852 56.4163 21.852Z" fill="#2C4BFF"/>
<path d="M64.4605 14.7584C64.9024 13.964 65.4087 13.3397 65.9795 12.8858C66.5594 12.4318 67.2222 12.2048 67.9679 12.2048C68.6123 12.2048 69.1371 12.3608 69.5421 12.673L69.2659 15.9076C69.2199 16.1157 69.1417 16.2575 69.0312 16.3332C68.9299 16.4089 68.7872 16.4467 68.6031 16.4467C68.5295 16.4467 68.4328 16.442 68.3131 16.4325C68.1935 16.4231 68.0692 16.4136 67.9403 16.4041C67.8114 16.3852 67.6779 16.371 67.5398 16.3616C67.411 16.3427 67.2913 16.3332 67.1808 16.3332C66.5548 16.3332 66.0531 16.5034 65.6757 16.8439C65.3074 17.1844 64.9944 17.6573 64.7367 18.2626V27.2005H60.456V12.4885H62.9968C63.2085 12.4885 63.3834 12.5074 63.5215 12.5453C63.6688 12.5831 63.7885 12.6446 63.8805 12.7297C63.9818 12.8054 64.0554 12.9094 64.1015 13.0418C64.1567 13.1742 64.2027 13.335 64.2396 13.5242L64.4605 14.7584Z" fill="#2C4BFF"/>
<path d="M77.3592 12.2615C78.4454 12.2615 79.4351 12.4365 80.328 12.7864C81.221 13.1364 81.9851 13.6377 82.6203 14.2903C83.2647 14.9429 83.7618 15.7374 84.1116 16.6737C84.4707 17.6006 84.6502 18.6457 84.6502 19.809C84.6502 20.9818 84.4707 22.0411 84.1116 22.9869C83.7618 23.9233 83.2647 24.7225 82.6203 25.3845C81.9851 26.0371 81.221 26.5431 80.328 26.9025C79.4351 27.2525 78.4454 27.4275 77.3592 27.4275C76.2637 27.4275 75.2648 27.2525 74.3627 26.9025C73.4697 26.5431 72.6964 26.0371 72.0428 25.3845C71.3984 24.7225 70.8967 23.9233 70.5376 22.9869C70.1878 22.0411 70.0129 20.9818 70.0129 19.809C70.0129 18.6457 70.1878 17.6006 70.5376 16.6737C70.8967 15.7374 71.3984 14.9429 72.0428 14.2903C72.6964 13.6377 73.4697 13.1364 74.3627 12.7864C75.2648 12.4365 76.2637 12.2615 77.3592 12.2615ZM77.3592 24.1644C78.3442 24.1644 79.0668 23.8098 79.5271 23.1004C79.9966 22.3816 80.2314 21.2939 80.2314 19.8374C80.2314 18.3809 79.9966 17.2979 79.5271 16.5886C79.0668 15.8792 78.3442 15.5245 77.3592 15.5245C76.3465 15.5245 75.6054 15.8792 75.136 16.5886C74.6665 17.2979 74.4317 18.3809 74.4317 19.8374C74.4317 21.2939 74.6665 22.3816 75.136 23.1004C75.6054 23.8098 76.3465 24.1644 77.3592 24.1644Z" fill="#2C4BFF"/>
<path d="M107.608 12.4885L103.162 27.2005H99.6821C99.498 27.2005 99.3415 27.1437 99.2126 27.0302C99.0837 26.9167 98.9824 26.7276 98.9088 26.4627L96.8651 19.128C96.7638 18.797 96.6718 18.4707 96.5889 18.1491C96.5153 17.8276 96.4462 17.5013 96.3818 17.1702C96.3174 17.5013 96.2437 17.8323 96.1609 18.1633C96.0872 18.4944 95.9998 18.8254 95.8985 19.1564L93.8272 26.4627C93.6891 26.9546 93.3853 27.2005 92.9158 27.2005H89.6017L85.1553 12.4885H88.5798C88.8836 12.4885 89.1368 12.5642 89.3393 12.7155C89.5511 12.8574 89.6938 13.0371 89.7674 13.2546L91.2035 19.8516C91.3232 20.3529 91.4291 20.8399 91.5211 21.3128C91.6132 21.7763 91.696 22.2445 91.7697 22.7174C91.8893 22.2445 92.0136 21.7763 92.1425 21.3128C92.2806 20.8399 92.4279 20.3529 92.5844 19.8516L94.3795 13.2404C94.4532 13.0229 94.5913 12.8432 94.7938 12.7013C94.9963 12.55 95.2357 12.4743 95.5118 12.4743H97.4174C97.7212 12.4743 97.9744 12.55 98.1769 12.7013C98.3887 12.8432 98.5314 13.0229 98.605 13.2404L100.317 19.8516C100.455 20.3529 100.589 20.8399 100.718 21.3128C100.856 21.7858 100.98 22.2634 101.091 22.7457C101.164 22.2728 101.252 21.7999 101.353 21.327C101.454 20.8541 101.569 20.3623 101.698 19.8516L103.217 13.2546C103.291 13.0371 103.429 12.8574 103.631 12.7155C103.834 12.5642 104.073 12.4885 104.349 12.4885H107.608Z" fill="#2C4BFF"/>
<path d="M117.553 16.4325C117.231 16.0637 116.881 15.8083 116.504 15.6664C116.126 15.5151 115.73 15.4394 115.316 15.4394C114.92 15.4394 114.557 15.5198 114.225 15.6806C113.894 15.8414 113.604 16.1015 113.355 16.4609C113.116 16.8108 112.927 17.2695 112.789 17.837C112.651 18.4045 112.582 19.0902 112.582 19.8941C112.582 20.6697 112.637 21.3223 112.748 21.852C112.858 22.3816 113.01 22.8119 113.203 23.143C113.406 23.4645 113.645 23.6963 113.922 23.8381C114.198 23.98 114.506 24.0509 114.847 24.0509C115.16 24.0509 115.44 24.0226 115.689 23.9658C115.947 23.8996 116.182 23.8098 116.393 23.6963C116.605 23.5828 116.803 23.4409 116.987 23.2707C117.18 23.091 117.369 22.8876 117.553 22.6606V16.4325ZM121.834 5.96249V27.2005H119.183C118.649 27.2005 118.299 26.9546 118.133 26.4627L117.802 25.342C117.516 25.6541 117.217 25.9378 116.904 26.1932C116.591 26.4485 116.251 26.6708 115.882 26.86C115.523 27.0397 115.132 27.1768 114.709 27.2714C114.294 27.3754 113.843 27.4275 113.355 27.4275C112.61 27.4275 111.919 27.2572 111.284 26.9167C110.649 26.5762 110.101 26.0844 109.641 25.4413C109.18 24.7981 108.817 24.0131 108.55 23.0862C108.292 22.1499 108.163 21.0859 108.163 19.8941C108.163 18.797 108.311 17.7803 108.605 16.8439C108.9 15.8981 109.314 15.0847 109.848 14.4038C110.391 13.7133 111.04 13.1742 111.795 12.7864C112.55 12.3987 113.383 12.2048 114.294 12.2048C115.04 12.2048 115.666 12.3135 116.172 12.5311C116.679 12.7486 117.139 13.0418 117.553 13.4107V5.96249H121.834Z" fill="#2C4BFF"/>
<path d="M133.826 15.709C133.715 15.8887 133.596 16.0164 133.467 16.092C133.347 16.1677 133.191 16.2055 132.997 16.2055C132.795 16.2055 132.592 16.163 132.39 16.0778C132.187 15.9833 131.966 15.884 131.727 15.7799C131.497 15.6759 131.235 15.5813 130.94 15.4962C130.645 15.4016 130.309 15.3543 129.932 15.3543C129.389 15.3543 128.97 15.4631 128.675 15.6806C128.39 15.8887 128.247 16.1819 128.247 16.5602C128.247 16.8345 128.339 17.0615 128.523 17.2412C128.717 17.4209 128.97 17.5817 129.283 17.7235C129.596 17.8559 129.95 17.9836 130.346 18.1066C130.742 18.2295 131.147 18.3667 131.561 18.518C131.976 18.6693 132.381 18.849 132.776 19.0571C133.172 19.2557 133.527 19.5064 133.84 19.809C134.153 20.1022 134.401 20.4616 134.585 20.8872C134.779 21.3128 134.875 21.8236 134.875 22.4194C134.875 23.1477 134.747 23.8192 134.489 24.434C134.231 25.0488 133.844 25.5784 133.329 26.0229C132.823 26.4675 132.192 26.8127 131.437 27.0586C130.691 27.3045 129.831 27.4275 128.855 27.4275C128.367 27.4275 127.879 27.3802 127.391 27.2856C126.903 27.191 126.429 27.0633 125.969 26.9025C125.518 26.7417 125.099 26.5526 124.712 26.3351C124.326 26.1081 123.994 25.8669 123.718 25.6115L124.712 23.9942C124.823 23.805 124.961 23.6584 125.126 23.5544C125.301 23.4409 125.522 23.3842 125.789 23.3842C126.038 23.3842 126.259 23.4409 126.452 23.5544C126.655 23.6679 126.871 23.7908 127.101 23.9233C127.331 24.0557 127.598 24.1786 127.902 24.2921C128.215 24.4056 128.606 24.4624 129.076 24.4624C129.407 24.4624 129.688 24.4293 129.918 24.3631C130.148 24.2874 130.332 24.1881 130.47 24.0651C130.609 23.9422 130.71 23.805 130.774 23.6537C130.839 23.5024 130.871 23.3463 130.871 23.1855C130.871 22.8923 130.774 22.6512 130.581 22.462C130.388 22.2728 130.134 22.1121 129.821 21.9796C129.508 21.8378 129.149 21.7101 128.744 21.5966C128.348 21.4736 127.943 21.3365 127.529 21.1852C127.115 21.0338 126.705 20.8541 126.3 20.6461C125.904 20.4285 125.55 20.159 125.237 19.8374C124.924 19.5064 124.671 19.1044 124.477 18.6315C124.284 18.1586 124.187 17.5864 124.187 16.9149C124.187 16.2906 124.303 15.6995 124.533 15.1415C124.772 14.574 125.126 14.0775 125.596 13.6519C126.065 13.2262 126.655 12.8905 127.363 12.6446C128.072 12.3892 128.901 12.2615 129.849 12.2615C130.365 12.2615 130.862 12.3088 131.34 12.4034C131.828 12.498 132.284 12.6304 132.707 12.8006C133.131 12.9709 133.518 13.1742 133.867 13.4107C134.217 13.6377 134.526 13.8883 134.793 14.1626L133.826 15.709Z" fill="#2C4BFF"/>
<path d="M145.931 18.0782C145.931 17.7283 145.885 17.3878 145.793 17.0567C145.71 16.7257 145.567 16.4325 145.365 16.1771C145.172 15.9123 144.914 15.6995 144.592 15.5387C144.269 15.3779 143.878 15.2976 143.418 15.2976C142.608 15.2976 141.973 15.5387 141.512 16.0211C141.052 16.494 140.748 17.1797 140.601 18.0782H145.931ZM140.546 20.6319C140.684 21.8614 141.047 22.7552 141.637 23.3132C142.226 23.8618 142.985 24.1361 143.915 24.1361C144.412 24.1361 144.84 24.0746 145.199 23.9516C145.558 23.8287 145.876 23.6915 146.152 23.5402C146.437 23.3889 146.695 23.2517 146.925 23.1288C147.165 23.0058 147.413 22.9444 147.671 22.9444C148.012 22.9444 148.269 23.072 148.444 23.3274L149.687 24.9022C149.245 25.4224 148.766 25.848 148.251 26.179C147.745 26.5006 147.22 26.7559 146.677 26.9451C146.143 27.1248 145.604 27.2478 145.061 27.314C144.527 27.3896 144.016 27.4275 143.528 27.4275C142.525 27.4275 141.581 27.2619 140.698 26.9309C139.823 26.5904 139.054 26.0891 138.391 25.4271C137.738 24.765 137.218 23.9422 136.831 22.9585C136.454 21.9749 136.265 20.8305 136.265 19.5253C136.265 18.5417 136.426 17.61 136.748 16.7304C137.08 15.8508 137.549 15.08 138.157 14.418C138.774 13.7559 139.515 13.231 140.38 12.8432C141.254 12.4554 142.24 12.2615 143.335 12.2615C144.283 12.2615 145.149 12.4129 145.931 12.7155C146.723 13.0182 147.399 13.458 147.961 14.0349C148.532 14.6118 148.974 15.3212 149.287 16.163C149.609 16.9953 149.77 17.9411 149.77 19.0004C149.77 19.3314 149.756 19.6009 149.728 19.809C149.701 20.0171 149.65 20.1826 149.577 20.3056C149.503 20.4285 149.402 20.5136 149.273 20.5609C149.153 20.6082 148.997 20.6319 148.803 20.6319H140.546Z" fill="#2C4BFF"/>
<path d="M155.861 14.0775C156.137 13.8126 156.423 13.5667 156.717 13.3397C157.012 13.1128 157.325 12.9236 157.656 12.7723C157.997 12.6115 158.361 12.4885 158.747 12.4034C159.143 12.3088 159.571 12.2615 160.032 12.2615C160.814 12.2615 161.504 12.4034 162.103 12.6871C162.71 12.9614 163.221 13.3492 163.636 13.8505C164.05 14.3423 164.363 14.9334 164.575 15.6239C164.786 16.3048 164.892 17.0473 164.892 17.8512V27.2005H160.611V17.8512C160.611 17.1324 160.45 16.5744 160.128 16.1771C159.806 15.7705 159.332 15.5671 158.706 15.5671C158.236 15.5671 157.794 15.6711 157.38 15.8792C156.975 16.0778 156.579 16.3521 156.193 16.7021V27.2005H151.912V12.4885H154.563C155.097 12.4885 155.447 12.7344 155.613 13.2262L155.861 14.0775Z" fill="#2C4BFF"/>
<path d="M176.348 16.4325C176.026 16.0637 175.676 15.8083 175.299 15.6664C174.921 15.5151 174.526 15.4394 174.111 15.4394C173.715 15.4394 173.352 15.5198 173.02 15.6806C172.689 15.8414 172.399 16.1015 172.15 16.4609C171.911 16.8108 171.722 17.2695 171.584 17.837C171.446 18.4045 171.377 19.0902 171.377 19.8941C171.377 20.6697 171.432 21.3223 171.543 21.852C171.653 22.3816 171.805 22.8119 171.999 23.143C172.201 23.4645 172.44 23.6963 172.717 23.8381C172.993 23.98 173.301 24.0509 173.642 24.0509C173.955 24.0509 174.236 24.0226 174.484 23.9658C174.742 23.8996 174.977 23.8098 175.188 23.6963C175.4 23.5828 175.598 23.4409 175.782 23.2707C175.975 23.091 176.164 22.8876 176.348 22.6606V16.4325ZM180.629 5.96249V27.2005H177.978C177.444 27.2005 177.094 26.9546 176.928 26.4627L176.597 25.342C176.311 25.6541 176.012 25.9378 175.699 26.1932C175.386 26.4485 175.046 26.6708 174.677 26.86C174.318 27.0397 173.927 27.1768 173.504 27.2714C173.089 27.3754 172.638 27.4275 172.15 27.4275C171.405 27.4275 170.714 27.2572 170.079 26.9167C169.444 26.5762 168.896 26.0844 168.436 25.4413C167.976 24.7981 167.612 24.0131 167.345 23.0862C167.087 22.1499 166.958 21.0859 166.958 19.8941C166.958 18.797 167.106 17.7803 167.4 16.8439C167.695 15.8981 168.109 15.0847 168.643 14.4038C169.186 13.7133 169.835 13.1742 170.59 12.7864C171.345 12.3987 172.178 12.2048 173.089 12.2048C173.835 12.2048 174.461 12.3135 174.967 12.5311C175.474 12.7486 175.934 13.0418 176.348 13.4107V5.96249H180.629Z" fill="#2C4BFF"/>
<path d="M192.428 18.0782C192.428 17.7283 192.382 17.3878 192.29 17.0567C192.207 16.7257 192.064 16.4325 191.862 16.1771C191.668 15.9123 191.41 15.6995 191.088 15.5387C190.766 15.3779 190.375 15.2976 189.914 15.2976C189.104 15.2976 188.469 15.5387 188.009 16.0211C187.549 16.494 187.245 17.1797 187.098 18.0782H192.428ZM187.042 20.6319C187.18 21.8614 187.544 22.7552 188.133 23.3132C188.722 23.8618 189.482 24.1361 190.412 24.1361C190.909 24.1361 191.337 24.0746 191.696 23.9516C192.055 23.8287 192.372 23.6915 192.649 23.5402C192.934 23.3889 193.192 23.2517 193.422 23.1288C193.661 23.0058 193.91 22.9444 194.168 22.9444C194.508 22.9444 194.766 23.072 194.941 23.3274L196.184 24.9022C195.742 25.4224 195.263 25.848 194.748 26.179C194.241 26.5006 193.717 26.7559 193.173 26.9451C192.639 27.1248 192.101 27.2478 191.558 27.314C191.024 27.3896 190.513 27.4275 190.025 27.4275C189.022 27.4275 188.078 27.2619 187.194 26.9309C186.32 26.5904 185.551 26.0891 184.888 25.4271C184.234 24.765 183.714 23.9422 183.328 22.9585C182.95 21.9749 182.762 20.8305 182.762 19.5253C182.762 18.5417 182.923 17.61 183.245 16.7304C183.576 15.8508 184.046 15.08 184.653 14.418C185.27 13.7559 186.011 13.231 186.877 12.8432C187.751 12.4554 188.736 12.2615 189.832 12.2615C190.78 12.2615 191.645 12.4129 192.428 12.7155C193.219 13.0182 193.896 13.458 194.458 14.0349C195.028 14.6118 195.47 15.3212 195.783 16.163C196.105 16.9953 196.267 17.9411 196.267 19.0004C196.267 19.3314 196.253 19.6009 196.225 19.809C196.197 20.0171 196.147 20.1826 196.073 20.3056C196 20.4285 195.898 20.5136 195.769 20.5609C195.65 20.6082 195.493 20.6319 195.3 20.6319H187.042Z" fill="#2C4BFF"/>
<path d="M202.413 14.7584C202.855 13.964 203.361 13.3397 203.932 12.8858C204.512 12.4318 205.175 12.2048 205.921 12.2048C206.565 12.2048 207.09 12.3608 207.495 12.673L207.219 15.9076C207.173 16.1157 207.094 16.2575 206.984 16.3332C206.883 16.4089 206.74 16.4467 206.556 16.4467C206.482 16.4467 206.385 16.442 206.266 16.4325C206.146 16.4231 206.022 16.4136 205.893 16.4041C205.764 16.3852 205.631 16.371 205.493 16.3616C205.364 16.3427 205.244 16.3332 205.133 16.3332C204.507 16.3332 204.006 16.5034 203.628 16.8439C203.26 17.1844 202.947 17.6573 202.689 18.2626V27.2005H198.409V12.4885H200.949C201.161 12.4885 201.336 12.5074 201.474 12.5453C201.621 12.5831 201.741 12.6446 201.833 12.7297C201.934 12.8054 202.008 12.9094 202.054 13.0418C202.109 13.1742 202.155 13.335 202.192 13.5242L202.413 14.7584Z" fill="#2C4BFF"/>
</svg>
