<?xml version="1.0" encoding="utf-8"?>
<!-- Generator: Adobe Illustrator 27.1.1, SVG Export Plug-In . SVG Version: 6.00 Build 0)  -->
<svg version="1.1" id="Layer_1" xmlns="http://www.w3.org/2000/svg" xmlns:xlink="http://www.w3.org/1999/xlink" x="0px" y="0px"
	 viewBox="0 0 500 300" style="enable-background:new 0 0 500 300;" xml:space="preserve">
<style type="text/css">
	.st0{fill:#E60000;}
	.st1{fill:#FF6600;}
	.st2{fill:#FFFFFF;}
	.st3{fill:#004580;}
	.st4{fill:#EA1D25;}
	.st5{fill:#006DFF;}
	.st6{fill:#3D3935;}
	.st7{fill:#FAB412;}
	.st8{fill:#352314;}
	.st9{fill:#C4D92D;}
	.st10{fill:#A100FF;}
</style>
<g>
	<polygon class="st10" points="284.7,125.4 309.05,116.33 284.7,107.01 284.7,94.32 326.4,111.15 326.4,121.51 284.7,138.35 	"/>
	<path d="M54.46,205.68c-8.81,0-16.06-4.4-16.06-14.24v-0.52c0-11.91,10.36-16.06,23.05-16.06h5.96v-2.33
		c0-4.92-2.07-7.77-7.25-7.77c-4.66,0-6.99,2.59-7.25,6.22H39.96c1.04-10.88,9.58-16.06,20.98-16.06c11.65,0,20.2,4.92,20.2,17.09
		v32.63H67.93v-5.7C65.34,202.58,60.94,205.68,54.46,205.68z M67.41,188.59v-4.66h-5.44c-6.73,0-10.1,1.81-10.1,6.22v0.52
		c0,3.37,2.07,5.7,6.73,5.7C63.27,196.1,67.41,193.51,67.41,188.59z M111.96,205.68c-13.47,0-23.31-8.29-23.31-24.86v-0.78
		c0-16.58,10.36-25.38,23.31-25.38c11.14,0,20.2,5.7,21.24,18.39h-12.95c-0.78-4.66-3.37-7.77-8.03-7.77
		c-5.7,0-9.84,4.66-9.84,14.24v1.55c0,9.84,3.63,14.24,9.84,14.24c4.66,0,8.03-3.37,8.81-8.81h12.43
		C132.68,197.91,125.17,205.68,111.96,205.68z M162.72,205.68c-13.47,0-23.31-8.29-23.31-24.86v-0.78
		c0-16.58,10.36-25.38,23.31-25.38c11.14,0,20.2,5.7,21.24,18.39h-12.95c-0.78-4.66-3.37-7.77-8.03-7.77
		c-5.7,0-9.84,4.66-9.84,14.24v1.55c0,9.84,3.63,14.24,9.84,14.24c4.66,0,8.03-3.37,8.81-8.81h12.43
		C183.44,197.91,175.93,205.68,162.72,205.68z M213.74,205.68c-13.99,0-23.57-8.29-23.57-24.6v-1.04c0-16.32,10.1-25.38,23.31-25.38
		c12.17,0,22.27,6.73,22.27,23.05v5.96H203.9c0.52,8.81,4.4,12.17,10.1,12.17c5.18,0,8.03-2.85,9.06-6.22h12.69
		C234.2,198.69,226.43,205.68,213.74,205.68z M204.16,174.6h18.13c-0.26-7.25-3.63-10.36-9.06-10.36
		C209.08,164.5,205.19,166.83,204.16,174.6z M244.04,155.96h13.73v7.25c2.33-4.66,7.25-8.29,14.76-8.29
		c8.81,0,14.76,5.44,14.76,17.09v32.63h-13.73v-30.56c0-5.7-2.33-8.29-7.25-8.29c-4.66,0-8.55,2.85-8.55,9.06v29.78h-13.73
		L244.04,155.96L244.04,155.96z M312.42,141.19v14.76h9.32v10.1h-9.32v23.05c0,3.63,1.55,5.44,4.92,5.44c2.07,0,3.37-0.26,4.66-0.78
		v10.62c-1.55,0.52-4.4,1.04-7.77,1.04c-10.62,0-15.54-4.92-15.54-14.76v-24.6h-5.7v-10.1h5.7v-9.06L312.42,141.19z M373.02,204.65
		h-13.47v-7.25c-2.33,4.66-6.99,8.29-14.24,8.29c-8.81,0-15.28-5.44-15.28-16.83v-32.89h13.73v31.08c0,5.7,2.33,8.29,6.99,8.29
		c4.66,0,8.55-3.11,8.55-9.06v-30.3h13.73V204.65z M383.12,155.96h13.73v9.06c2.85-6.47,7.51-9.58,14.76-9.58v13.47
		c-9.32,0-14.76,2.85-14.76,10.88v25.12h-13.73V155.96z M439.32,205.68c-13.99,0-23.57-8.29-23.57-24.6v-1.04
		c0-16.32,10.1-25.38,23.31-25.38c12.17,0,22.27,6.73,22.27,23.05v5.96h-31.6c0.52,8.81,4.4,12.17,10.1,12.17
		c5.18,0,8.03-2.85,9.06-6.22h12.69C459.52,198.69,452.01,205.68,439.32,205.68z M429.48,174.6h18.39
		c-0.26-7.25-3.63-10.36-9.06-10.36C434.66,164.5,430.78,166.83,429.48,174.6z"/>
</g>
</svg>
