<?xml version="1.0" encoding="utf-8"?>
<!-- Generator: Adobe Illustrator 27.1.1, SVG Export Plug-In . SVG Version: 6.00 Build 0)  -->
<svg version="1.1" id="Layer_1" xmlns="http://www.w3.org/2000/svg" xmlns:xlink="http://www.w3.org/1999/xlink" x="0px" y="0px"
	 viewBox="0 0 500 300" style="enable-background:new 0 0 500 300;" xml:space="preserve">
<style type="text/css">
	.st0{fill:#E60000;}
	.st1{fill:#FF6600;}
	.st2{fill:#FFFFFF;}
	.st3{fill:#004580;}
	.st4{fill:#EA1D25;}
	.st5{fill:#006DFF;}
	.st6{fill:#3D3935;}
	.st7{fill:#FAB412;}
	.st8{fill:#352314;}
	.st9{fill:#C4D92D;}
	.st10{fill:#A100FF;}
</style>
<g>
	<g id="g3131">
		<path id="path3137" class="st8" d="M62.05,217.83h375.91V82.17H62.05C62.05,82.17,62.05,217.83,62.05,217.83z"/>
	</g>
	<g id="g3139" transform="matrix(2.1469517,0,0,-2.1469517,47.037987,167.73138)">
		<path id="path3141" class="st9" d="M103.65,14.3c-1.12,1.14-2.77,1.72-4.78,1.72c-2.89,0-5.38-0.17-8.02-1.51l-3.34,1.73V-5.5
			h4.39v16.33c1.61,1.12,3.66,1.37,5.95,1.37c1.19,0,1.93-0.29,2.4-0.79c0.47-0.5,0.74-1.33,0.74-2.58V-5.5h4.35V9.51
			C105.33,11.5,104.77,13.15,103.65,14.3"/>
	</g>
	<g id="g3143" transform="matrix(2.1469517,0,0,-2.1469517,-9.8090002,194.47166)">
		<path id="path3145" class="st9" d="M96.95,11.15c-0.46,0.41-0.72,0.95-0.73,1.79c0,0.53,0.13,0.99,0.43,1.44
			c0.45,0.68,1.33,1.35,2.84,1.95c1.4,0.56,3.31,1.06,5.84,1.48v-6.57c-1.54-0.56-3.27-0.98-4.99-0.97c-0.41,0-0.81,0.02-1.21,0.07
			C98.15,10.45,97.41,10.74,96.95,11.15z M107.93,26.57c-1.21,1.27-3.05,1.92-5.53,1.92c-2.82,0-5.55-0.47-8.22-1.52l-0.45-0.18
			l0.99-3.55l0.55,0.2c2.33,0.84,4.28,1.28,6.79,1.29c1.15,0,1.95-0.28,2.45-0.76c0.51-0.48,0.81-1.23,0.81-2.38v-0.44
			c-4.77-0.7-8.04-1.74-10.2-3.16c-2.23-1.45-3.23-3.39-3.21-5.55c-0.01-1.71,0.62-3.07,1.74-3.96c1.11-0.91,2.63-1.37,4.41-1.55
			c0.8-0.08,1.57-0.12,2.3-0.12c2.24,0,4.19,0.37,6.17,1.03l3.09-1.15v14.67C109.62,23.5,109.13,25.3,107.93,26.57"/>
	</g>
	<g id="g3147" transform="matrix(2.1469517,0,0,-2.1469517,103.0176,194.47166)">
		<path id="path3149" class="st9" d="M110.24,11.15c-0.46,0.41-0.72,0.95-0.73,1.79c0,0.53,0.13,0.99,0.43,1.44
			c0.45,0.68,1.33,1.35,2.84,1.95c1.39,0.56,3.31,1.06,5.83,1.48v-6.57c-1.54-0.56-3.27-0.97-4.98-0.97c-0.4,0-0.81,0.02-1.21,0.07
			C111.45,10.45,110.71,10.74,110.24,11.15z M121.23,26.57c-1.2,1.27-3.05,1.92-5.53,1.92c-2.82,0-5.55-0.47-8.22-1.52l-0.45-0.18
			l0.99-3.55l0.55,0.2c2.33,0.84,4.28,1.28,6.79,1.29c1.15,0,1.94-0.28,2.45-0.76c0.51-0.48,0.81-1.23,0.81-2.38v-0.44
			c-4.76-0.7-8.04-1.74-10.2-3.16c-2.23-1.45-3.23-3.39-3.21-5.55c-0.01-1.71,0.62-3.07,1.74-3.96c1.11-0.91,2.63-1.37,4.41-1.55
			c0.8-0.08,1.57-0.12,2.3-0.12c2.24,0,4.19,0.37,6.18,1.03l3.09-1.15v14.67C122.92,23.5,122.43,25.3,121.23,26.57"/>
	</g>
	<g id="g3151" transform="matrix(2.1469517,0,0,-2.1469517,77.271358,165.10995)">
		<path id="path3153" class="st9" d="M107.21,14.61h-5.5L92.42,3.78l8.95-10.5h5.5l-8.95,10.5L107.21,14.61"/>
	</g>
	<path id="path3155" class="st9" d="M312.96,179.54h9.33v-45.79h-9.33V179.54z"/>
	<g id="g3157" transform="matrix(2.1469517,0,0,-2.1469517,-38.408543,195.22739)">
		<path id="path3159" class="st9" d="M93.58,11.06c-2.36-0.31-5-0.03-7.04,0.86v16.63c1.61,0.68,4.06,0.75,5.5,0.38
			c3.91-1,3.08-4.39-0.13-7.51c3.91-0.38,7.17-2.41,7.17-5.38C99.07,13.09,96.39,11.52,93.58,11.06z M97.68,23.25
			c2.4,2.4,1.91,7.69-2.6,9.13c-3.52,1.12-9.6,0.43-12.84-0.54c0-0.91,0-24.78,0-24.78l3.87,1.15c2.5-0.75,4.98-1.14,7.81-0.98
			c2.8,0.16,5.46,1.05,6.85,2.44c1.57,1.57,2.57,3.75,2.6,6.15l0,0.04v0.05c0,0,0,0,0,0.01v0.03
			C103.37,19.23,101.18,22.55,97.68,23.25"/>
	</g>
</g>
</svg>
