<?xml version="1.0" encoding="utf-8"?>
<!-- Generator: Adobe Illustrator 27.1.1, SVG Export Plug-In . SVG Version: 6.00 Build 0)  -->
<svg version="1.1" id="Layer_1" xmlns="http://www.w3.org/2000/svg" xmlns:xlink="http://www.w3.org/1999/xlink" x="0px" y="0px"
	 viewBox="0 0 500 300" style="enable-background:new 0 0 500 300;" xml:space="preserve">
<style type="text/css">
	.st0{fill:#E60000;}
	.st1{fill:#FF6600;}
	.st2{fill:#FFFFFF;}
	.st3{fill:#004580;}
	.st4{fill:#EA1D25;}
	.st5{fill:#006DFF;}
</style>
<g>
	<path class="st3" d="M120.44,153.66c1.33,0.45,2.88,1.11,4.65,2c3.1,1.78,5.75,4.21,7.98,7.31c2.66,4.43,3.98,9.74,3.98,15.94
		c0,21.27-12.85,31.89-38.54,31.89H48.69c-1.33,0-2-0.67-2-2V106.48c0-1.33,0.67-2,2-2h52.49c9.31,0,16.82,2.56,22.58,7.64
		c5.75,5.1,8.64,11.85,8.64,20.27c0,4.88-1.11,9.19-3.32,12.96C126.86,149.12,123.98,151.89,120.44,153.66z"/>
	<path class="st2" d="M97.85,195.51c7.53,0,13.06-1.22,16.61-3.65c3.53-2.43,5.31-6.64,5.31-12.62s-1.78-10.18-5.31-12.62
		c-3.55-2.43-9.09-3.65-16.61-3.65H66.62c-1.78,0-2.66,0.67-2.66,2v28.58c0,1.33,0.88,2,2.66,2h31.23V195.51z"/>
	<path class="st2" d="M66.62,119.77c-1.33,0-2,0.67-2,2v23.92c0,1.33,0.67,2,2,2h30.56c11.51,0,17.27-4.65,17.27-13.95
		c0-9.31-5.76-13.95-17.27-13.95L66.62,119.77L66.62,119.77z"/>
	<path class="st3" d="M228.08,153.66c1.33,0.45,2.66,1.11,3.98,2c3.53,1.78,6.2,4.21,7.98,7.31c3.1,4.43,4.65,9.74,4.65,15.94
		c0,21.27-12.85,31.89-38.54,31.89h-49.83c-1.33,0-2-0.67-2-2V106.48c0-1.33,0.67-2,2-2h52.49c8.86,0,16.27,2.56,22.26,7.64
		c5.98,5.1,8.97,11.85,8.97,20.27c0,4.88-1.11,9.19-3.32,12.96C234.5,149.12,231.62,151.89,228.08,153.66z"/>
	<path class="st2" d="M173.59,119.77c-1.33,0-2,0.67-2,2v23.92c0,1.33,0.67,2,2,2h31.23c11.51,0,17.27-4.65,17.27-13.95
		c0-9.31-5.76-13.95-17.27-13.95L173.59,119.77L173.59,119.77z"/>
	<path class="st2" d="M205.48,195.51c7.53,0,13.06-1.22,16.61-3.65c3.53-2.43,5.31-6.64,5.31-12.62s-1.78-10.18-5.31-12.62
		c-3.55-2.43-9.09-3.65-16.61-3.65h-31.89c-1.33,0-2,0.67-2,2v28.58c0,1.33,0.67,2,2,2h31.89V195.51z"/>
	<path class="st3" d="M339.7,105.81c0.44-0.88,0.88-1.33,1.33-1.33h17.27c0.44,0,0.88,0.23,1.33,0.67c0.44,0.45,0.44,0.9,0,1.33
		l-55.14,103.65c-0.45,0.45-1,0.67-1.66,0.67s-1.23-0.22-1.66-0.67l-55.14-103.65c-0.45-0.44-0.56-0.88-0.33-1.33
		c0.22-0.44,0.77-0.67,1.66-0.67h16.61c0.88,0,1.55,0.45,2,1.33l35.21,66.45c0,0.45,0.44,0.67,1.33,0.67c0.88,0,1.55-0.22,2-0.67
		L339.7,105.81z"/>
	<path class="st3" d="M359.63,194.19c-0.45,0.9-1.11,1.33-2,1.33h-17.27c-0.45,0-0.78-0.22-1-0.67c-0.23-0.44-0.33-0.88-0.33-1.33
		l55.15-103.65c0.44-0.44,1.1-0.67,2-0.67c0.88,0,1.55,0.23,2,0.67l55.13,103.65c0,0.45-0.11,0.9-0.33,1.33
		c-0.23,0.45-0.56,0.67-1,0.67h-17.27c-0.9,0-1.56-0.44-2-1.33l-34.55-66.45c-0.45-0.88-1.11-1.33-2-1.33c-0.9,0-1.56,0.45-2,1.33
		L359.63,194.19z"/>
</g>
</svg>
