<?xml version="1.0" encoding="utf-8"?>
<!-- Generator: Adobe Illustrator 27.1.1, SVG Export Plug-In . SVG Version: 6.00 Build 0)  -->
<svg version="1.1" id="Layer_1" xmlns="http://www.w3.org/2000/svg" xmlns:xlink="http://www.w3.org/1999/xlink" x="0px" y="0px"
	 viewBox="0 0 500 300" style="enable-background:new 0 0 500 300;" xml:space="preserve">
<style type="text/css">
	.st0{fill:#E60000;}
	.st1{fill:#FF6600;}
	.st2{fill:#FFFFFF;}
	.st3{fill:#004580;}
	.st4{fill:#EA1D25;}
	.st5{fill:#006DFF;}
	.st6{fill:#3D3935;}
	.st7{fill:#FAB412;}
	.st8{fill:#352314;}
	.st9{fill:#C4D92D;}
	.st10{fill:#A100FF;}
</style>
<g id="layer1" transform="translate(263.60425,43.669435)">
	<g id="g904" transform="matrix(0.98611474,0,0,0.95410208,-34.722996,-15.725398)">
		<path id="path898" class="st6" d="M-136.08,153.2c-1.99-0.54-5.03-2.49-5.97-3.84c-0.62-0.88-0.63-0.86-0.65,1.15l-0.02,2.05
			h-5.67h-5.67v-25.22v-25.22l5.96,0.11l5.96,0.11l0.11,8.53l0.11,8.53l1.77-1.56c2.33-2.05,4.61-2.79,8.62-2.79
			c4.19,0,6.85,0.97,9.63,3.51c2.53,2.31,3.96,4.85,4.98,8.83c2.44,9.55-0.99,20.33-7.74,24.29
			C-127.88,153.55-132.49,154.17-136.08,153.2L-136.08,153.2z M-132.72,143.61c3.99-1.81,5.68-9.65,3.29-15.2
			c-1.41-3.27-4.03-4.73-7.2-4c-2.2,0.5-3.39,1.51-4.65,3.94c-1.05,2.02-1.1,2.35-0.97,6.43c0.16,5.31,1.03,7.29,3.82,8.7
			C-136.33,144.54-134.84,144.57-132.72,143.61L-132.72,143.61z M-98.56,153.12c-9.24-2-14.46-8.78-14.46-18.78
			c0-7.89,3.63-13.94,10.37-17.28c3.45-1.71,5.44-2.16,9.56-2.14c7.9,0.03,13.4,3.37,16.6,10.09c1.56,3.28,2.16,5.94,2.16,9.59v2.72
			h-13.29h-13.29v0.91c0,0.5,0.48,1.86,1.07,3.03c1.4,2.76,3.43,3.96,6.72,3.96c2.77,0,4.78-0.88,6.15-2.67l1-1.31h5.4
			c2.97,0,5.49,0.15,5.6,0.33c0.42,0.69-2.16,5.25-3.98,7.02C-83.35,152.86-91.28,154.7-98.56,153.12L-98.56,153.12z M-86.45,129.95
			c0-1.96-2.3-5.39-4.14-6.16c-4.28-1.79-8.95,0.72-10.07,5.42l-0.26,1.07h7.24C-89.7,130.28-86.45,130.13-86.45,129.95z
			 M-42.68,146.5v-7.23H17.9h60.58v7.23v7.23H17.9h-60.58V146.5z M109.54,153.39c-2.14-0.56-4.08-1.68-5.66-3.27l-1.57-1.57v2v2
			h-5.67h-5.67v-25.21v-25.21h6.06h6.06v8.94v8.94l1.46-1.38c2.5-2.36,4.43-3.01,8.89-3.01c3.53,0,4.13,0.11,6.23,1.14
			c5.85,2.87,8.8,8.58,8.81,17.07c0.01,11.82-5.63,19.22-15.04,19.72C111.95,153.64,110.19,153.56,109.54,153.39z M112.9,143.46
			c1.76-1.18,2.94-3.39,3.48-6.5c0.83-4.79-0.63-9.71-3.41-11.42c-2.58-1.59-6.41-0.91-8.28,1.47c-2.48,3.15-2.64,11.17-0.29,14.69
			C106.16,144.34,110.32,145.2,112.9,143.46z M138.69,153.11c-5.64-1.52-8.05-5-7.79-11.23c0.12-2.95,0.27-3.51,1.33-5.01
			c2.31-3.28,5.33-4.59,13.52-5.82c7.12-1.08,8.23-1.44,8.71-2.81c1.22-3.48-3.88-6.14-8.14-4.26c-1.47,0.65-1.98,1.14-2.5,2.39
			l-0.66,1.58l-5.47-0.1l-5.47-0.1l0.12-1.56c0.16-2.09,1.79-5.4,3.27-6.64c2.83-2.38,6.45-3.59,11.86-3.96
			c9.57-0.66,16.61,2.43,18.15,7.98c0.24,0.88,0.41,6.95,0.41,15.24l0,13.79l-5.37-0.11l-5.37-0.11l-0.2-1.15
			c-0.11-0.63-0.32-1.16-0.47-1.17c-0.15-0.01-1.2,0.54-2.34,1.23C148.51,153.54,143.05,154.28,138.69,153.11L138.69,153.11z
			 M149.78,145.87c2.5-0.69,3.93-2.45,4.46-5.46c0.68-3.88,0.62-4.4-0.43-4.11c-0.48,0.13-2.41,0.58-4.27,1
			c-4.18,0.93-5.59,1.64-6.4,3.2C141.23,144.17,144.99,147.2,149.78,145.87z M-206.04,127.35v-25.21h6.64h6.64v19.54v19.54h8.79
			h8.79v5.67v5.67h-15.44h-15.44L-206.04,127.35z M-170.86,134.19v-18.37h6.06h6.06v18.37v18.37h-6.06h-6.06V134.19z M-70.82,134.19
			v-18.37h5.85h5.85l0.11,2.74l0.11,2.74l1.37-1.84c2.15-2.89,7-4.81,10.65-4.2l1.47,0.24v5.42v5.42l-3.06-0.24
			c-3.61-0.28-5.38,0.19-7.39,1.96c-2.66,2.34-2.82,3.12-2.83,14.42l-0.01,10.06h-6.06h-6.06L-70.82,134.19z M170.71,134.58V116.6
			h5.67h5.67v2.19v2.19l2.14-1.96c2.98-2.72,6.07-3.74,10.7-3.52c5.51,0.26,8.9,2.46,10.68,6.92c0.84,2.11,0.88,2.76,1.01,16.17
			l0.13,13.97h-6.08h-6.08l-0.01-11.43c-0.01-10.37-0.08-11.58-0.75-13.06c-0.81-1.79-1.46-2.27-3.62-2.67
			c-2.01-0.38-3.68,0.08-5.23,1.45c-2.24,1.97-2.52,3.66-2.52,15.43v10.29h-5.86h-5.86L170.71,134.58z M210.96,127.34v-25.22
			l5.96,0.11l5.96,0.11l0.2,12.74l0.2,12.74l5.2-5.8l5.2-5.8h6.82c3.75,0,6.82,0.14,6.82,0.3c0,0.17-1.51,1.79-3.35,3.62
			c-1.84,1.82-4.76,4.85-6.48,6.72l-3.13,3.41l7.26,10.97c4,6.03,7.26,11.05,7.26,11.15c0,0.1-3.23,0.18-7.17,0.18h-7.17l-3.96-6.55
			c-2.18-3.6-4.13-6.81-4.34-7.13c-0.31-0.48-0.61-0.36-1.76,0.76l-1.38,1.34v5.79v5.79h-6.06h-6.06V127.34z M-170.86,106.83v-4.69
			h6.06h6.06v4.69v4.69h-6.06h-6.06V106.83z"/>
		<rect id="rect900" x="-42.73" y="139.09" class="st7" width="121.25" height="14.65"/>
	</g>
</g>
</svg>
