<?xml version="1.0" encoding="utf-8"?>
<!-- Generator: Adobe Illustrator 27.1.1, SVG Export Plug-In . SVG Version: 6.00 Build 0)  -->
<svg version="1.1" id="Layer_1" xmlns="http://www.w3.org/2000/svg" xmlns:xlink="http://www.w3.org/1999/xlink" x="0px" y="0px"
	 viewBox="0 0 500 300" style="enable-background:new 0 0 500 300;" xml:space="preserve">
<style type="text/css">
	.st0{fill:#E60000;}
	.st1{fill:#FF6600;}
	.st2{fill:#FFFFFF;}
	.st3{fill:#004580;}
	.st4{fill:#EA1D25;}
	.st5{fill:#006DFF;}
</style>
<g>
	<path id="background" class="st1" d="M374.85,274.85H125.15V25.15h249.71V274.85z"/>
	<path id="letter_o" class="st2" d="M155.88,254.72c-9.04,0-17.2-5.76-17.2-18.34c0-12.58,8.15-18.34,17.2-18.34
		c9.04,0,17.19,5.76,17.19,18.34C173.06,248.96,164.92,254.72,155.88,254.72 M155.88,225.77c-6.83,0-8.08,6.16-8.08,10.61
		c0,4.44,1.25,10.62,8.08,10.62s8.08-6.17,8.08-10.62C163.96,231.93,162.71,225.77,155.88,225.77"/>
	<path id="letter_r" class="st2" d="M179.33,218.95h8.7v4.08c1.66-2.2,5.74-4.8,9.57-4.8c0.36,0,0.81,0,1.18,0.05v8.59h-0.45
		c-3.97,0-8.33,0.62-9.73,3.71v23.12h-9.28V218.95L179.33,218.95z"/>
	<path id="letter_a" class="st2" d="M223.1,250.68c-3.54,2.33-7.37,3.45-11.49,3.45c-6.49,0-10.32-4.32-10.32-10.11
		c0-7.78,7.15-11.89,21.89-13.55v-1.94c0-2.53-1.91-4-5.45-4c-3.54,0-6.41,1.41-8.48,4l-6.17-3.52c3.24-4.53,8.17-6.8,14.8-6.8
		c9.07,0,14.15,3.93,14.15,10.32c0,0-0.01,25.13,0,25.18h-8.11L223.1,250.68L223.1,250.68z M210.29,243.36
		c0,2.34,1.47,4.52,4.12,4.52c2.88,0,5.67-1.18,8.48-3.66v-8.23C214.34,237.05,210.29,239.25,210.29,243.36"/>
	<path id="letter_n" class="st2" d="M239.25,219.88l7.58-1.04l0.83,4.12c4.27-3.12,7.66-4.79,11.93-4.79
		c7.15,0,10.84,3.8,10.84,11.31v24.19h-9.15v-22.6c0-4.25-1.1-6.17-4.41-6.17c-2.73,0-5.45,1.23-8.57,3.85v24.92h-9.05
		L239.25,219.88L239.25,219.88z"/>
	<path id="letter_g" class="st2" d="M292.82,246.24c6.93-0.05,7.53-7.11,7.53-11.71c0-5.45-2.65-9.85-7.58-9.85
		c-3.28,0-6.96,2.4-6.96,10.23C285.8,239.18,286.11,246.3,292.82,246.24 M309.13,218.83v32.9c0,5.79-0.46,15.38-17,15.47
		c-6.83,0.05-13.18-2.69-14.43-8.65l9.02-1.46c0.38,1.71,1.43,3.4,6.54,3.4c4.74,0,7.02-2.27,7.02-7.7v-4.05l-0.12-0.12
		c-1.46,2.6-3.66,5.07-8.97,5.07c-8.11,0-14.48-5.62-14.48-17.37c0-11.62,6.58-18.14,13.96-18.14c6.94-0.01,9.5,3.15,10.11,4.81
		l-0.12-0.01l0.76-4.16h7.71V218.83z"/>
	<path id="letter_e" class="st2" d="M331,254.34c-10.25,0-16.35-6.59-16.35-18.02c0-11.56,6.18-18.14,16.2-18.14
		s15.99,6.39,15.99,17.69c0,0.61-0.07,1.2-0.07,1.8h-23.14c0.06,6.59,2.8,9.92,8.18,9.92c3.45,0,5.74-1.39,7.89-4.44l6.69,3.71
		C343.45,251.76,338.14,254.34,331,254.34 M337.86,231.73c0-4.64-2.67-7.38-7.01-7.38c-4.13,0-6.71,2.68-7.08,7.38H337.86
		L337.86,231.73z"/>
	<path id="letter_TM" class="st2" d="M362.5,205.77l-3.37,8.71l-3.43-8.71h-2.93v11.49h1.9v-9.59h0.05l3.77,9.59h1.21l3.75-9.59
		h0.06v9.59h1.89v-11.49H362.5L362.5,205.77z M341.35,205.77v1.53h3.59v9.96h1.9v-9.96h3.6v-1.53H341.35L341.35,205.77z"/>
</g>
</svg>
