<?xml version="1.0" encoding="utf-8"?>
<!-- Generator: Adobe Illustrator 27.1.1, SVG Export Plug-In . SVG Version: 6.00 Build 0)  -->
<svg version="1.1" id="Layer_1" xmlns="http://www.w3.org/2000/svg" xmlns:xlink="http://www.w3.org/1999/xlink" x="0px" y="0px"
	 viewBox="0 0 500 300" style="enable-background:new 0 0 500 300;" xml:space="preserve">
<style type="text/css">
	.st0{fill:#E60000;}
	.st1{fill:#FF6600;}
	.st2{fill:#FFFFFF;}
	.st3{fill:#004580;}
	.st4{fill:#EA1D25;}
	.st5{fill:#006DFF;}
</style>
<g>
	<path d="M148.88,135.04c-4.32-12.25-14.41-16.57-26.75-16.57c-6.48,0-12.55,1.44-17.7,5.76c-5.04,4.22-7.62,9.98-7.62,16.56
		c0,15.43,12.35,19.14,24.9,21.71c4.32,0.92,12.35,2.06,12.35,7.92c0,5.86-6.27,7.61-11.01,7.61c-7.3,0-12.65-2.58-14.71-9.98
		l-15.24,3.5c3.2,13.79,15.24,19.56,28.5,19.56c7.1,0,14.82-1.34,20.47-5.77c5.46-4.22,8.75-10.8,8.75-17.7
		c0-6.99-3.5-12.86-9.26-16.66c-4.94-3.29-12.66-4.74-18.41-5.97c-4.02-0.73-10.19-1.96-10.19-7.1c0-5.46,5.35-6.59,9.78-6.59
		c6.27,0,10.08,2.37,12.14,8.34L148.88,135.04z M203.41,190.09c-0.83-2.57-1.03-5.15-1.03-7.82v-24.39c0-6.27,0.52-12.04-4.83-16.36
		c-4.23-3.5-11.22-4.74-16.56-4.74c-11.01,0-23.36,3.71-24.9,16.36l14.3,1.34c0-5.14,4.22-7.62,9.05-7.62
		c2.27,0,4.84,0.72,6.18,2.47c1.55,1.95,1.34,4.62,1.34,6.89v1.23c-6.38,0.62-14.71,1.03-20.67,3.3
		c-6.89,2.57-11.73,7.83-11.73,15.54c0,9.88,7.2,14.82,16.46,14.82c7.82,0,12.34-2.99,16.67-9.16c-0.11,2.68,0.1,5.45,0.72,8.13
		L203.41,190.09z M186.95,167.15c0,3.72,0.11,6.79-2.05,10.09c-1.75,2.68-4.53,4.32-7.62,4.32c-4.21,0-6.68-2.78-6.68-6.89
		c0-7.62,10.59-8.95,16.36-9.57L186.95,167.15z M226.06,160.67c0-5.56,1.02-13.48,8.33-13.48c8.34,0,8.34,10.9,8.34,16.77
		c0,5.66,0,16.56-8.54,16.56c-2.78,0-4.94-1.33-6.38-3.6c-1.65-2.57-1.75-5.87-1.75-8.74L226.06,160.67z M210.72,190.09h8.23
		c0.93-2.78,1.55-5.77,3.39-8.03c3.81,6.28,7.41,9.06,14.92,9.06c15.74,0,21.19-13.48,21.19-27.17c0-12.35-4.53-27.17-19.44-27.17
		c-5.87,0-10.18,2.47-12.76,7.62h-0.41v-24.9h-15.13L210.72,190.09z M310.42,190.09c-0.83-2.57-1.02-5.15-1.02-7.82v-24.39
		c0-6.27,0.51-12.04-4.85-16.36c-4.21-3.5-11.21-4.74-16.56-4.74c-11.01,0-23.36,3.71-24.9,16.36l14.3,1.34
		c0-5.14,4.22-7.62,9.05-7.62c2.27,0,4.83,0.72,6.17,2.47c1.54,1.95,1.34,4.62,1.34,6.89v1.23c-6.38,0.62-14.72,1.03-20.69,3.3
		c-6.89,2.57-11.73,7.83-11.73,15.54c0,9.88,7.21,14.82,16.47,14.82c7.82,0,12.35-2.99,16.68-9.16c-0.11,2.68,0.09,5.45,0.72,8.13
		L310.42,190.09z M293.97,167.15c0,3.72,0.1,6.79-2.06,10.09c-1.75,2.68-4.53,4.32-7.61,4.32c-4.22,0-6.69-2.78-6.69-6.89
		c0-7.62,10.59-8.95,16.37-9.57L293.97,167.15z M362.38,190.09v-70.59h-15.12v23.87c-3.3-4.84-7.2-6.59-13.07-6.59
		c-15.23,0-19.14,15.33-19.14,27.78c0,12.14,4.11,26.55,18.83,26.55c6.69,0,11.01-3.6,13.9-9.16h0.2v8.13L362.38,190.09z
		 M347.26,168.28c0,2.58-0.11,5.35-1.34,7.72c-1.24,2.36-3.81,4.22-6.58,4.22c-7.52,0-8.34-9.57-8.34-15.23
		c0-6.28,0.31-17.6,8.95-17.6c6.9,0,7.31,8.64,7.31,13.69L347.26,168.28z M417.95,166.53c0.1-7.1-1.03-14.5-5.35-20.47
		c-4.33-5.97-11.83-9.26-19.14-9.26c-16.26,0-25.41,12.45-25.41,27.89c0,15.54,10.18,26.45,25.82,26.45
		c17.7,0,23.77-15.44,23.77-18.01l-14-1.03c0,4.83-4.62,8.23-9.25,8.23c-6.58,0-10.09-5.04-10.09-11.22l0.1-2.57L417.95,166.53z
		 M384.3,157.58c0.52-5.97,3.09-10.91,9.78-10.91c6.59,0,8.44,5.25,8.74,10.91H384.3z M424.63,190.09h15.12v-70.59h-15.12V190.09z
		 M447.27,190.09h15.12v-70.59h-15.12V190.09z"/>
	<path class="st5" d="M65.61,108.88c-15.46,0-28,12.54-28,28c0,15.47,12.54,28,28,28c15.46,0,28-12.54,28-28
		C93.62,121.41,81.07,108.88,65.61,108.88"/>
	<path class="st2" d="M69.07,133.31c0.77-0.57,1.19-1.58,1.19-2.53c0-1.03-0.49-2-1.39-2.53c-0.93-0.53-2.65-0.41-3.75-0.41h-3.96
		v6.13h4.45C66.75,133.96,68.1,134.05,69.07,133.31 M69.27,139.48c-0.94-0.53-2.24-0.53-3.3-0.53h-4.82v6.74h4.53
		c1.18,0,2.69,0.08,3.71-0.61c0.94-0.61,1.47-1.75,1.47-2.9C70.87,141.1,70.22,140.01,69.27,139.48 M74.33,149.35
		c-2.04,1.51-4.77,1.51-7.18,1.51H54.62v-28h12.53c2.21,0,4.49,0,6.41,1.22c2.24,1.43,3.43,3.47,3.43,6.13
		c0,3.18-2.12,5.3-5.06,6.04v0.08c3.47,0.7,5.84,3.35,5.84,6.98C77.77,145.76,76.3,147.93,74.33,149.35"/>
</g>
</svg>
