<?xml version="1.0" encoding="utf-8"?>
<!-- Generator: Adobe Illustrator 27.1.1, SVG Export Plug-In . SVG Version: 6.00 Build 0)  -->
<svg version="1.1" id="Layer_1" xmlns="http://www.w3.org/2000/svg" xmlns:xlink="http://www.w3.org/1999/xlink" x="0px" y="0px"
	 viewBox="0 0 500 300" style="enable-background:new 0 0 500 300;" xml:space="preserve">
<style type="text/css">
	.st0{fill:#E60000;}
	.st1{fill:#FF6600;}
	.st2{fill:#FFFFFF;}
	.st3{fill:#004580;}
	.st4{fill:#EA1D25;}
	.st5{fill:#006DFF;}
</style>
<g id="g8" transform="translate(0,-0.4)">
	<path id="path6" class="st4" d="M86.68,147.32c-0.19-2.8-0.93-5.59-2.42-8.02l-12.68-22.19c-0.93-1.68-1.68-3.54-2.05-5.41
		l-0.56,0.93c-3.17,5.41-3.17,12.31,0,17.71l10.25,17.71c3.17,5.41,3.17,12.31,0,17.71l-0.56,0.93c-0.37-1.86-1.12-3.73-2.05-5.41
		l-9.32-16.22l-5.97-10.44c-0.93-1.68-1.68-3.54-2.05-5.41l-0.56,0.93c-3.17,5.41-3.17,12.12,0,17.71l0,0l10.25,17.71
		c3.17,5.41,3.17,12.31,0,17.71l-0.56,0.93c-0.37-1.86-1.12-3.73-2.05-5.41l-12.86-22.19c-1.68-2.98-2.42-6.34-2.42-9.69
		c-13.61,3.54-23.12,11.19-23.12,19.95c0,12.31,18.27,22.19,40.83,22.19s40.83-9.88,40.83-22.19
		C109.8,158.51,100.48,150.87,86.68,147.32z M125.27,185.17c0.19-3.17,0.56-5.22,1.49-7.83c4.29,2.05,9.88,2.98,13.98,2.98
		c7.08,0,11.19-2.24,11.19-6.9c0-4.47-2.98-6.53-10.07-9.69l-3.92-1.49c-7.27-3.17-12.12-7.27-12.12-15.29
		c0-8.76,6.15-14.36,18.46-14.36c5.03,0,9.69,0.75,13.98,2.24c-0.19,2.98-0.75,5.41-1.49,7.64c-4.1-1.49-9.14-2.24-12.68-2.24
		c-6.71,0-9.69,2.61-9.69,6.71c0,3.92,2.98,6.34,8.39,8.58l4.1,1.68c9.69,4.1,13.8,8.58,13.8,16.03c0,8.76-6.71,14.92-19.76,14.92
		C134.78,188.15,129.56,187.22,125.27,185.17z M201.9,148.44v38.41h-7.83l-0.37-4.66c-2.24,3.36-5.41,5.59-10.81,5.59
		c-10.07,0-16.97-7.46-16.97-20.32c0-13.42,7.27-21.25,21.44-21.25C192.95,146.39,197.61,146.95,201.9,148.44z M193.51,178.09
		v-24.05c-1.68-0.37-3.73-0.37-6.15-0.37c-8.76,0-12.86,5.41-12.86,13.98c0,7.83,3.17,13.42,10.63,13.42
		C188.66,180.88,191.27,179.76,193.51,178.09z M245.15,161.12v25.73h-8.39v-24.24c0-6.15-2.05-8.95-10.44-8.95
		c-2.05,0-4.29,0.19-6.71,0.56v32.63h-8.39v-38.41c5.41-1.31,11.37-2.24,15.29-2.24C240.68,146.39,245.15,151.8,245.15,161.12z
		 M268.64,180.7c2.42,0,4.85-0.37,6.53-1.12c-0.19,2.24-0.56,4.85-0.93,7.08c-2.24,0.93-4.85,1.31-7.08,1.31
		c-8.2,0-13.42-3.73-13.42-13.05v-40.46c2.61-0.93,5.78-1.31,8.39-1.31v14.54h13.42c-0.19,2.61-0.37,5.03-0.75,7.27h-12.68v18.83
		C262.12,178.65,264.54,180.7,268.64,180.7z M313.95,148.44v38.41h-7.83l-0.37-4.66c-2.24,3.36-5.41,5.59-10.81,5.59
		c-10.07,0-16.97-7.46-16.97-20.32c0-13.42,7.27-21.25,21.44-21.25C305,146.39,309.47,146.95,313.95,148.44L313.95,148.44z
		 M305.37,178.09v-24.05c-1.68-0.37-3.73-0.37-6.15-0.37c-8.76,0-12.86,5.41-12.86,13.98c0,7.83,3.17,13.42,10.63,13.42
		C300.53,180.88,303.32,179.76,305.37,178.09z M357.2,161.12v25.73h-8.58v-24.24c0-6.15-2.05-8.95-10.44-8.95
		c-2.05,0-4.29,0.19-6.71,0.56v32.63h-8.39v-38.41c5.41-1.31,11.37-2.24,15.29-2.24C352.54,146.39,357.2,151.8,357.2,161.12
		L357.2,161.12z M399.9,133.15v53.69h-7.83l-0.37-4.85c-2.24,3.54-5.41,5.78-11,5.78c-10.07,0-16.97-7.46-16.97-20.32
		c0-13.42,7.27-21.25,21.44-21.25c2.24,0,4.29,0.19,6.34,0.56v-12.68C394.12,133.34,397.1,133.15,399.9,133.15z M391.51,178.09
		v-23.68c-2.24-0.37-4.47-0.75-6.71-0.75c-8.39,0-12.31,5.22-12.31,13.98c0,7.83,3.17,13.42,10.63,13.42
		C386.47,180.88,389.27,179.76,391.51,178.09L391.51,178.09z M442.41,170.44h-27.03c1.12,6.9,5.03,10.07,12.68,10.07
		c4.66,0,9.32-0.93,13.42-2.98c-0.37,2.24-0.75,5.22-1.31,7.64c-3.92,1.68-7.83,2.42-12.49,2.42c-14.17,0-20.88-7.83-20.88-20.88
		c0-11.37,5.22-20.51,18.64-20.51c12.12,0,17.34,7.83,17.34,17.53C442.78,166.34,442.78,168.21,442.41,170.44L442.41,170.44z
		 M415.37,163.36h19.02c0-6.34-3.36-10.07-9.14-10.07C419.1,153.48,415.93,156.83,415.37,163.36z M472.05,146.76
		c0,2.61-0.37,5.59-0.75,7.27c-2.05-0.19-3.92-0.37-6.34-0.37c-2.05,0-4.1,0.19-6.15,0.37v32.81h-8.39v-38.41
		c3.54-1.31,9.69-2.24,14.36-2.24C467.2,146.39,470.19,146.39,472.05,146.76z"/>
</g>
</svg>
