<?xml version="1.0" encoding="utf-8"?>
<!-- Generator: Adobe Illustrator 27.1.1, SVG Export Plug-In . SVG Version: 6.00 Build 0)  -->
<svg version="1.1" id="Layer_1" xmlns="http://www.w3.org/2000/svg" xmlns:xlink="http://www.w3.org/1999/xlink" x="0px" y="0px"
	 viewBox="0 0 500 300" style="enable-background:new 0 0 500 300;" xml:space="preserve">
<style type="text/css">
	.st0{fill:#E60000;}
	.st1{fill:#FF6600;}
	.st2{fill:#FFFFFF;}
	.st3{fill:#004580;}
	.st4{fill:#EA1D25;}
	.st5{fill:#006DFF;}
</style>
<g id="vodafone">
	<path id="XMLID_00000072252897409445784710000018120351028020748422_" class="st0" d="M60.85,101.23
		c14.38-7.02,31.83-7.07,46.35-0.4c-11.23-0.93-22.45,2.79-31.79,8.85c-9.71,6.25-16.86,16.28-19.77,27.44
		c-2.06,7.95-1.71,16.62,1.58,24.19c4.53,10.81,15.55,18.85,27.41,18.88c6.76,0.07,13.59-2.17,18.8-6.52
		c6.23-5.13,10.19-12.93,10.59-20.99c0.29-6.54-1.31-13.39-5.52-18.55c-4.57-5.7-11.52-8.87-18.48-10.56
		c-0.69-10.47,7.44-20.43,17.63-22.47c11.65,5.51,21.21,15.3,26.38,27.11c5.04,11.35,5.96,24.45,2.58,36.39
		c-3.03,10.89-9.59,20.76-18.47,27.76c-9.42,7.54-21.43,11.77-33.5,11.75c-10.62,0.11-21.23-3.04-30.08-8.9
		c-10.82-7.08-18.97-18.15-22.4-30.63c-3.18-11.32-2.54-23.7,1.84-34.62C38.95,117.48,48.74,107.02,60.85,101.23z"/>
	<path id="XMLID_00000153701680191545832810000017837259755881389994_" class="st0" d="M329.52,122.01
		c1.74-2.96,5.04-4.73,8.39-5.13c3.88-0.49,7.89-0.03,11.54,1.42c-0.32,2.83-0.76,5.65-1.13,8.48c-2.76-1.06-6.21-1.88-8.88-0.2
		c-2.07,1.4-1.92,4.14-1.84,6.34c2.82-0.02,5.65,0,8.48-0.01c0,2.76,0,5.51,0,8.26c-2.82,0-5.63,0.01-8.44-0.01
		c-0.01,10.43,0,20.87,0,31.3c-3.38,0-6.76-0.01-10.13,0.01c-0.01-10.44,0.01-20.87-0.01-31.31c-1.76,0.03-3.51,0.02-5.27,0.02
		c-0.01-2.76,0-5.51,0-8.26c1.76,0,3.52,0,5.28,0.01C327.39,129.21,327.48,125.26,329.52,122.01z"/>
	<g id="XMLID_00000026136018510354700670000007511138626804180670_">
		<path id="XMLID_00000174586154392749489960000005580210359496910991_" class="st0" d="M267.94,117.73
			c3.4,0.02,6.8,0.01,10.19,0.01c0,18.24,0,36.47,0,54.71c-3.12,0-6.23-0.02-9.34,0.01c-0.17-1.02-0.32-2.04-0.41-3.07
			c-4.67,5.25-13.33,5.01-18.55,0.72c-5.16-4.14-7.34-11.03-7.3-17.47c-0.13-6.83,2.68-14.13,8.62-17.91
			c4.9-3.28,11.29-3.44,16.79-1.7C267.93,127.94,267.93,122.84,267.94,117.73z M257.62,141.68c-2.92,1.71-4.52,5.01-5,8.26
			c-0.33,3.19-0.1,6.52,1.21,9.48c0.99,2.24,2.84,4.2,5.24,4.9c3.23,0.95,6.86-0.43,8.89-3.05c-0.05-6.56,0-13.11-0.03-19.67
			C264.67,140.36,260.76,139.86,257.62,141.68z"/>
	</g>
	<g id="XMLID_00000026857503733953807300000007887502881571145395_">
		<path id="XMLID_00000123415734707316326710000002380011905182366377_" class="st0" d="M213.28,132.53
			c5.04-1.12,10.67-0.78,15.1,2.09c4.6,2.84,7.56,7.84,8.55,13.08c1.09,5.88,0.21,12.24-3.02,17.34c-2.46,3.96-6.54,6.92-11.12,7.85
			c-4.6,0.9-9.64,0.49-13.73-1.93c-3.9-2.21-6.73-6.02-8.18-10.23c-2.2-6.16-1.84-13.23,1.15-19.06
			C204.27,137.21,208.43,133.75,213.28,132.53z M215.9,140.85c-2.99,0.98-5,3.79-5.76,6.74c-0.97,3.72-0.89,7.79,0.55,11.38
			c0.95,2.43,2.9,4.61,5.49,5.28c2.82,0.85,6.09,0.02,8.06-2.2c2.64-2.85,3.28-6.97,3.09-10.72c-0.15-3.32-1.17-6.85-3.8-9.05
			C221.46,140.47,218.46,140.11,215.9,140.85z"/>
	</g>
	<g id="XMLID_00000086687143589220808320000000568999245289060749_">
		<path id="XMLID_00000146459382486843315390000007017124406994506654_" class="st0" d="M287.13,136.72
			c5.47-4,12.65-5.64,19.31-4.34c3.4,0.64,6.59,2.66,8.32,5.7c2,3.29,2.24,7.26,2.14,11.01c0,7.79,0,15.57,0,23.35
			c-3.11-0.01-6.22-0.01-9.33,0c-0.1-0.98-0.23-1.96-0.4-2.92c-5.15,5.2-14.56,5.05-19.6-0.23c-2.91-3.07-4-7.68-2.88-11.75
			c0.91-3.49,3.72-6.17,6.9-7.68c4.71-2.24,9.98-2.69,15.1-3.09c0.12-2.23-0.42-4.98-2.74-5.91c-4.6-1.97-9.71,0.23-13.46,3.02
			C289.39,141.49,288.24,139.11,287.13,136.72z M296.78,155.9c-2.04,1.17-3.02,3.83-2.3,6.05c0.63,1.78,2.56,2.69,4.35,2.78
			c2.91,0.33,5.75-0.92,7.93-2.77c-0.02-2.69,0-5.38-0.01-8.08C303.39,154.25,299.83,154.29,296.78,155.9z"/>
	</g>
	<g id="XMLID_00000102516373624564701880000016831444456817797798_">
		<path id="XMLID_00000090254709008496761500000010150737816525078174_" class="st0" d="M362.18,132.47
			c4.93-1.04,10.42-0.69,14.75,2.08c4.69,2.83,7.7,7.92,8.65,13.24c1.17,5.56,0.2,11.53-2.56,16.48c-2.32,4.2-6.42,7.4-11.09,8.51
			c-5,1.1-10.57,0.62-14.92-2.26c-4.37-2.76-7.16-7.52-8.26-12.5c-1.45-6.04-0.45-12.68,2.86-17.96
			C353.96,136.3,357.84,133.5,362.18,132.47z M364.79,140.77c-2.64,0.79-4.66,3.03-5.6,5.57c-1.39,3.81-1.43,8.1-0.12,11.94
			c0.64,1.8,1.64,3.56,3.22,4.72c2.98,2.29,7.63,2.06,10.29-0.64c2.66-2.61,3.46-6.53,3.48-10.13c-0.12-3.65-1.04-7.68-4.04-10.07
			C370.04,140.47,367.23,140.18,364.79,140.77z"/>
	</g>
	<path id="XMLID_00000035500265629981788540000005077006208270561725_" class="st0" d="M402.2,135.99c4.12-3.32,9.7-4.77,14.9-3.72
		c3.37,0.53,6.51,2.56,8.21,5.54c2.22,3.8,2.6,8.32,2.51,12.63c0,7.33,0,14.67,0,22.01c-3.4,0.01-6.79-0.01-10.19,0.01
		c-0.01-7.34-0.01-14.68,0-22.03c0-2.7-0.32-5.65-2.14-7.79c-1.23-1.49-3.19-2.24-5.1-2.13c-3.09-0.12-5.64,1.94-7.8,3.89
		c0.01,9.35,0,18.7,0,28.06c-3.39-0.01-6.77-0.01-10.15,0c0-13.18,0-26.37,0-39.55c3.09,0.01,6.19,0.01,9.28,0
		C401.89,133.93,402.05,134.96,402.2,135.99z"/>
	<g id="XMLID_00000065063541823873470550000012207090752897573306_">
		<path id="XMLID_00000143591775590433098560000008447758765047895466_" class="st0" d="M439.2,137.46
			c6.27-6.9,18.43-7.54,25.13-0.95c4.72,4.94,5.68,12.19,5.47,18.74c-8.55-0.04-17.09-0.01-25.63-0.01
			c-0.01,3.46,1.76,7.08,5.11,8.39c5.35,2.07,11.63,0.77,16.23-2.48c0.8,2.79,1.86,5.5,2.62,8.3c-4.2,2.73-9.27,3.68-14.2,3.88
			c-5.23,0.13-10.79-1.38-14.47-5.28c-4.44-4.47-5.92-11.07-5.46-17.19C434.16,146,435.85,141.06,439.2,137.46z M447.28,141.95
			c-1.84,1.44-2.66,3.74-2.97,5.98c5.06,0,10.12,0,15.19,0c-0.29-2.85-1.6-5.93-4.37-7.16
			C452.58,139.38,449.41,140.15,447.28,141.95z"/>
	</g>
	<path id="XMLID_00000020357664236876385870000005816362831479385736_" class="st0" d="M156.97,132.91c3.64,0,7.27,0,10.9,0
		c3.17,8.11,6.4,16.2,9.58,24.32c0.24,0.59,0.52,1.16,0.81,1.73c3.3-8.68,6.61-17.36,9.95-26.03c3.46-0.02,6.92,0,10.37-0.01
		c-5.38,13.17-10.75,26.34-16.1,39.52c-2.95,0.06-5.91,0-8.86,0.03C168.03,159.29,162.57,146.07,156.97,132.91z"/>
</g>
</svg>
