<svg width="49" height="48" viewBox="0 0 49 48" fill="none" xmlns="http://www.w3.org/2000/svg">
<g id="Social Icons" clip-path="url(#clip0_265_72)">
<path id="Vector" d="M44.9567 0H4.04333C3.10358 0 2.20232 0.373315 1.53782 1.03782C0.873315 1.70232 0.5 2.60358 0.5 3.54333V44.4567C0.5 45.3964 0.873315 46.2977 1.53782 46.9622C2.20232 47.6267 3.10358 48 4.04333 48H44.9567C45.8964 48 46.7977 47.6267 47.4622 46.9622C48.1267 46.2977 48.5 45.3964 48.5 44.4567V3.54333C48.5 2.60358 48.1267 1.70232 47.4622 1.03782C46.7977 0.373315 45.8964 0 44.9567 0ZM14.8067 40.89H7.59V17.9667H14.8067V40.89ZM11.1933 14.79C10.3747 14.7854 9.57583 14.5384 8.89747 14.0802C8.21911 13.622 7.69168 12.9731 7.38175 12.2154C7.07183 11.4577 6.9933 10.6252 7.15606 9.82291C7.31883 9.02063 7.7156 8.28455 8.29631 7.70756C8.87702 7.13057 9.61563 6.73853 10.4189 6.58092C11.2222 6.42331 12.0542 6.50719 12.8099 6.82197C13.5656 7.13675 14.2111 7.66833 14.6649 8.34962C15.1188 9.03092 15.3606 9.83138 15.36 10.65C15.3677 11.1981 15.265 11.7421 15.058 12.2496C14.851 12.7571 14.544 13.2178 14.1551 13.6041C13.7663 13.9905 13.3037 14.2946 12.7948 14.4983C12.286 14.702 11.7413 14.8012 11.1933 14.79ZM41.4067 40.91H34.1933V28.3867C34.1933 24.6933 32.6233 23.5533 30.5967 23.5533C28.4567 23.5533 26.3567 25.1667 26.3567 28.48V40.91H19.14V17.9833H26.08V21.16H26.1733C26.87 19.75 29.31 17.34 33.0333 17.34C37.06 17.34 41.41 19.73 41.41 26.73L41.4067 40.91Z" fill="#DAFFFB"/>
</g>
<defs>
<clipPath id="clip0_265_72">
<rect width="48" height="48" fill="white" transform="translate(0.5)"/>
</clipPath>
</defs>
</svg>
